<?xml version="1.0" encoding="UTF-8"?>
<svg width="52px" height="35px" viewBox="0 0 52 35" version="1.1" xmlns="http://www.w3.org/2000/svg" xmlns:xlink="http://www.w3.org/1999/xlink">
    <!-- Generator: Sketch 47.1 (45422) - http://www.bohemiancoding.com/sketch -->
    <title>Shape</title>
    <desc>Created with Sketch.</desc>
    <defs></defs>
    <g id="Page-1" stroke="none" stroke-width="1" fill="none" fill-rule="evenodd">
        <g id="Desktop_CompareBreeds" transform="translate(-815.000000, -662.000000)" fill="#0099FF">
            <path d="M840.815777,662.004471 C836.535938,662.354876 833.418315,663.668286 831.260007,665.618143 C826.969498,670.355382 821.908985,675.022285 817.215116,679.644417 C817.202599,679.656339 817.190082,679.668856 817.17816,679.681374 C811.632865,685.48888 817.223461,697.549097 827.758396,695.682147 C827.764356,695.682207 827.770913,695.682207 827.776874,695.682147 C829.074577,695.445567 830.073053,694.767121 830.738565,693.875281 C831.84344,695.547555 833.41146,696.467409 835.078727,696.557595 C837.150069,696.669715 839.182606,695.662775 840.909003,694.061553 L841.095274,694.061553 C842.821671,695.662775 844.853911,696.669715 846.92561,696.557595 C848.593413,696.467409 850.141883,695.530328 851.247115,693.856684 C851.912984,694.749596 852.927614,695.44521 854.227463,695.682147 C864.759715,697.548978 870.369922,685.487151 864.826296,679.681374 C864.814374,679.668856 864.801857,679.656339 864.789339,679.644417 C859.806555,675.474469 855.348908,669.81613 850.744449,665.618143 C848.586081,663.667821 845.469591,662.354554 841.188738,662.004471 C841.120607,661.99851 841.05194,661.99851 840.983809,662.004471 C840.977849,662.004423 840.971292,662.004423 840.965331,662.004471 C840.915857,662.00149 840.865907,662.00149 840.816314,662.004471 L840.815777,662.004471 Z M841.00199,664.388749 C844.894741,664.709077 847.438766,665.848625 849.142095,667.387724 C850.859014,668.939186 851.774338,670.937527 852.196952,673.21803 C852.913547,677.084948 852.105872,681.626885 851.340102,684.990387 C850.329704,683.56888 848.910403,682.512943 847.484247,681.712004 C845.71386,680.714601 844.552359,679.411891 844.69023,676.608176 C844.769149,674.979243 844.987371,673.216188 844.764739,671.616093 C844.653214,670.816048 844.426231,670.017571 843.889232,669.343578 C843.352173,668.66959 842.488408,668.221184 841.52355,668.114184 L841.13241,668.058332 C841.04586,668.048795 840.958178,668.048795 840.871629,668.058332 L840.480429,668.114184 C839.51575,668.221184 838.651806,668.669471 838.114807,669.343578 C837.577808,670.017685 837.350169,670.815887 837.23936,671.616093 C837.017443,673.215538 837.232207,674.979404 837.313868,676.608176 C837.445957,679.41046 836.270985,680.714958 834.501135,681.712004 C833.076529,682.512108 831.674215,683.552429 830.663937,684.97179 C829.896974,681.609242 829.071477,677.08341 829.78849,673.21803 C830.211282,670.937575 831.125772,668.939252 832.843346,667.387724 C834.546913,665.848535 837.109357,664.709059 841.00199,664.388749 Z M827.422809,672.938622 C826.492463,678.195789 827.925116,683.871385 828.745368,687.244305 C828.751328,687.263379 828.757289,687.281857 828.763846,687.300336 C829.252146,688.925341 829.445511,690.512435 829.229496,691.547332 C829.014076,692.580737 828.671992,693.093 827.348181,693.33554 C818.653909,694.875725 815.107831,685.322159 818.891443,681.339639 L827.422809,672.938622 Z M854.562573,672.938622 L863.093879,681.339461 C866.874331,685.319 863.345778,694.874354 854.655739,693.335421 C853.33008,693.092463 852.971365,692.579843 852.755767,691.547212 C852.539871,690.512972 852.749806,688.925162 853.240074,687.300157 C853.24663,687.281679 853.253187,687.2632 853.258552,687.244126 C854.075704,683.872578 855.491369,678.195015 854.562394,672.938473 L854.562573,672.938622 Z M841.00199,681.972785 C842.632121,681.972785 843.982338,683.323061 843.982338,684.953133 C843.982338,686.583264 842.635757,687.933481 841.00199,687.933481 C839.368222,687.933481 838.021641,686.5869 838.021641,684.953133 C838.021641,683.319365 839.371978,681.972785 841.00199,681.972785 Z M833.471783,673.313401 C834.674591,673.313401 835.693453,674.30668 835.693453,675.522209 C835.693453,676.737744 834.674591,677.731022 833.471783,677.731022 C832.268974,677.731022 831.255357,676.73034 831.255357,675.522209 C831.255357,674.314083 832.268974,673.313401 833.471783,673.313401 Z M848.522361,673.313401 L848.522361,673.313401 C849.72517,673.313401 850.738787,674.314083 850.738787,675.522209 C850.738787,676.73034 849.72517,677.731022 848.522361,677.731022 C847.319553,677.731022 846.305936,676.73034 846.305936,675.522209 C846.305936,674.314083 847.319553,673.313401 848.522361,673.313401 Z" id="Shape"></path>
        </g>
    </g>
</svg>