<?xml version="1.0" encoding="UTF-8"?>
<svg width="52px" height="36px" viewBox="0 0 52 36" version="1.1" xmlns="http://www.w3.org/2000/svg" xmlns:xlink="http://www.w3.org/1999/xlink">
    <!-- Generator: Sketch 47.1 (45422) - http://www.bohemiancoding.com/sketch -->
    <title>Shape</title>
    <desc>Created with Sketch.</desc>
    <defs></defs>
    <g id="Page-1" stroke="none" stroke-width="1" fill="none" fill-rule="evenodd">
        <g id="Desktop_CompareBreeds" transform="translate(-574.000000, -661.000000)" fill="#198754">
            <path d="M600.467694,661.0025 C596.926028,660.938073 593.232006,662.11686 590.260004,664.75327 C585.977006,669.565438 580.910415,674.286387 576.215116,678.964736 C576.206175,678.97318 576.186505,678.993687 576.17816,679.002131 C570.632865,684.878513 576.223461,697.081702 586.758393,695.19261 C586.758393,695.192249 586.775083,695.193033 586.776872,695.19261 C588.074634,694.953225 589.073051,694.247914 589.738562,693.345498 C590.843437,695.037604 592.411517,695.987246 594.078723,696.078501 C596.150124,696.191891 598.182602,695.173008 599.908998,693.552857 L600.09527,693.552857 C601.821666,695.173069 603.853965,696.191891 605.925604,696.078501 C607.593407,695.987186 609.141936,695.039051 610.247108,693.345498 C610.913037,694.24906 611.927667,694.952923 613.227456,695.19261 C623.759765,697.081581 629.369912,684.876704 623.826287,679.002131 C623.817942,678.993084 623.797675,678.97318 623.78933,678.964736 C618.787234,674.758102 614.350153,669.007112 609.744443,664.75327 C607.393485,662.374394 604.009777,661.066928 600.468111,661.0025 L600.467694,661.0025 Z M586.422806,672.179442 C585.492461,677.498928 586.925054,683.241836 587.745365,686.654757 C587.751326,686.675264 587.757883,686.690946 587.763843,686.711452 C588.252144,688.35573 588.445568,689.961647 588.229493,691.008817 C588.014073,692.054419 587.671989,692.572756 586.348178,692.818234 C577.653909,694.376684 574.107832,684.709815 577.891442,680.680063 L586.422806,672.179442 Z M613.562566,672.179442 L622.09387,680.679883 C625.874262,684.706558 622.345769,694.375297 613.655732,692.818053 C612.330073,692.572213 611.971358,692.053514 611.75576,691.008636 C611.539864,689.96219 611.749799,688.355488 612.240067,686.711271 C612.246623,686.690162 612.253776,686.676289 612.258545,686.654576 C613.075637,683.243042 614.491421,677.498144 613.562387,672.179261 L613.562566,672.179442 Z M592.476607,672.556404 C593.679535,672.556404 594.693271,673.569376 594.693271,674.799296 C594.693271,676.029278 593.679535,677.023371 592.476607,677.023371 C591.273858,677.023371 590.260004,676.021738 590.260004,674.799296 C590.260004,673.576855 591.273858,672.556404 592.476607,672.556404 Z M607.527362,672.556404 C608.73029,672.556404 609.744026,673.576855 609.744026,674.799296 C609.744026,676.021738 608.73029,677.023371 607.527362,677.023371 C606.324613,677.023371 605.310759,676.021738 605.310759,674.799296 C605.310759,673.576855 606.324613,672.556404 607.527362,672.556404 Z M600.001985,681.320718 C601.632116,681.320718 602.982332,682.687008 602.982332,684.336412 C602.982332,685.985816 601.635752,687.352106 600.001985,687.352106 C598.368218,687.352106 597.021637,685.989555 597.021637,684.336412 C597.021637,682.683269 598.371973,681.320718 600.001985,681.320718 Z" id="Shape"></path>
        </g>
    </g>
</svg>